<svg width="160" height="160" viewBox="0 0 160 160" fill="none" xmlns="http://www.w3.org/2000/svg">
<path d="M1.14453 78.8572C2.28739 76.2857 4.5731 75.4286 7.43024 75.4286C22.8588 75.4286 38.2874 75.4286 54.0017 75.4286C56.2874 75.4286 58.0017 76 59.716 77.7143C66.0017 84.2857 72.5731 90.5714 78.8588 97.1429C79.1445 97.4286 79.4303 98 80.0017 98.5714C80.5731 98 81.1445 97.4286 81.4303 97.1429C88.0017 90.5714 94.5731 84.2857 100.859 77.7143C102.287 76.2857 104.002 75.7143 106.002 75.7143C122.002 75.7143 137.716 75.7143 153.716 75.7143C156.002 75.7143 158.002 76.2857 158.859 78.5714C159.716 80.8572 158.859 82.5714 157.145 84.2857C150.002 91.4286 142.859 98.5714 135.43 105.714C134.573 106.571 134.287 107.429 134.287 108.571C134.287 123.429 134.287 138.286 134.287 153.143C134.287 156 133.43 158 130.573 159.143C96.8588 159.143 63.1445 159.143 29.4302 159.143C26.5731 158 25.716 156 25.716 153.143C25.716 138.286 25.716 123.429 25.716 108.286C25.716 107.143 25.4302 106.286 24.5731 105.714C17.716 98.8572 10.8588 92 4.00167 85.1429C2.85882 84 2.00167 82.8572 1.14453 81.4286C1.14453 80.2857 1.14453 79.7143 1.14453 78.8572ZM35.1445 109.429C35.1445 122.857 35.1445 136.286 35.1445 149.429C48.5731 149.429 62.0017 149.429 75.1445 149.429C75.1445 136 75.1445 122.571 75.1445 109.429C62.0017 109.429 48.5731 109.429 35.1445 109.429ZM124.859 109.429C111.43 109.429 98.0017 109.429 84.8588 109.429C84.8588 122.857 84.8588 136.286 84.8588 149.429C98.2874 149.429 111.716 149.429 124.859 149.429C124.859 136 124.859 122.857 124.859 109.429ZM68.8588 100C63.716 94.8572 58.8588 90 53.716 85.1429C53.4302 84.8572 52.5731 84.5714 52.0017 84.5714C40.8588 84.5714 29.4302 84.5714 18.2874 84.5714C18.0017 84.5714 17.4302 84.5714 16.8588 84.5714C21.716 89.4286 26.5731 94.2857 31.1445 98.8572C32.0017 99.7143 32.5731 100 33.716 100C44.5731 100 55.716 100 66.5731 100C67.4302 100 68.0017 100 68.8588 100ZM91.4303 100C92.0017 100 92.2874 100 92.5731 100C104.002 100 115.43 100 126.859 100C127.43 100 128.002 99.7143 128.573 99.1429C133.145 94.5714 137.716 90 142.287 85.4286C142.573 85.1429 142.859 84.8572 143.145 84.5714C142.859 84.5714 142.859 84.5714 142.573 84.5714C130.859 84.5714 119.43 84.5714 107.716 84.5714C107.145 84.5714 106.573 84.8572 106.287 85.1429C101.145 90 96.2874 94.8572 91.4303 100Z" fill="black"/>
<path d="M84.572 71.1428C84.572 72.2857 84.572 73.4286 84.572 74.2857C84.572 77.1428 82.8577 79.4286 80.0006 79.4286C77.4291 79.4286 75.4291 77.4286 75.1434 74.5714C74.8577 66.5714 74.0006 58.5714 72.0006 50.8571C70.572 44.5714 68.2863 38.5714 64.572 33.1428C60.2863 27.4286 54.8577 24.2857 47.7149 25.1428C42.8577 25.7143 39.1434 27.7143 37.7149 32.5714C36.2863 37.4286 38.0006 41.4286 41.7149 44.8571C45.7149 48.2857 50.572 49.7143 55.4291 50.2857C56.8577 50.5714 58.2863 50.5714 60.0006 50.5714C62.572 50.5714 64.2863 52.5714 64.572 54.8571C64.8577 57.1428 62.8577 59.7143 60.572 59.7143C49.7149 59.7143 39.7149 57.4286 32.572 48.5714C27.7149 42.2857 26.572 35.4286 29.7149 28C32.8577 20.8571 38.8577 17.1428 46.572 16.2857C57.7149 14.8571 66.2863 19.4286 72.572 28.5714C77.4291 35.4286 80.0006 43.1428 81.7149 51.1428C83.1434 57.7143 84.0006 64.5714 84.572 71.1428Z" fill="black"/>
<path d="M97.7176 60C96.8605 60 96.0033 60 95.1462 60C92.2891 60 90.2891 58 90.2891 55.4286C90.2891 52.8571 92.2891 50.8571 95.1462 50.8571C100.575 50.8571 106.003 50.2857 111.146 48.2857C114.575 46.8571 117.432 45.1428 120.003 42.5714C128.86 33.4286 126.003 21.1428 113.718 17.4286C110.86 16.5714 108.003 16.2857 105.146 16C102.289 15.7143 100.003 13.7143 100.289 11.1428C100.289 8.57141 102.575 6.57141 105.432 6.57141C111.432 6.57141 117.432 7.71427 122.575 11.1428C135.718 19.1428 138.289 36.2857 128.003 47.7143C122.289 54 115.146 57.4286 106.86 59.1428C103.718 59.4286 100.86 59.7143 97.7176 60Z" fill="black"/>
<path d="M84.8594 4.28571C85.7165 3.42857 86.2879 2.85714 87.1451 2.28571C89.1451 0.85714 91.4308 0.85714 93.1451 2.57143C94.8594 4.28571 95.1451 6.85714 93.7165 8.57143C92.0022 10.5714 90.0022 12.5714 88.0022 14.5714C86.2879 16 83.7165 15.7143 82.2879 14.2857C80.5737 12.5714 78.8594 10.8571 77.1451 9.14285C75.4308 7.14285 75.4308 4.57143 77.1451 2.85714C78.8594 1.14285 81.4308 0.85714 83.4308 2.57143C83.7165 2.85714 84.2879 3.42857 84.8594 4.28571Z" fill="black"/>
</svg>
